<?xml version="1.0" encoding="UTF-8" standalone="no"?>
<svg
   xmlns:dc="http://purl.org/dc/elements/1.1/"
   xmlns:cc="http://creativecommons.org/ns#"
   xmlns:rdf="http://www.w3.org/1999/02/22-rdf-syntax-ns#"
   xmlns:svg="http://www.w3.org/2000/svg"
   xmlns="http://www.w3.org/2000/svg"
   id="svg31"
   xml:space="preserve"
   enable-background="new 0 0 990 300"
   viewBox="0 0 34 16"
   height="16"
   width="34"
   y="0px"
   x="0px"
   version="1.1"><metadata
     id="metadata37"><rdf:RDF><cc:Work
         rdf:about=""><dc:format>image/svg+xml</dc:format><dc:type
           rdf:resource="http://purl.org/dc/dcmitype/StillImage" /><dc:title></dc:title></cc:Work></rdf:RDF></metadata><defs
     id="defs35" /><path
     style="fill:#036cb5;stroke-width:0.08062979"
     d="M 7.9765625,0 A 8,8 0 0 0 7.8808594,0.00390625 C 7.6977557,0.0057911 7.5159186,0.01707885 7.3359375,0.03125 A 8,8 0 0 0 6.71875,0.10742188 C 6.680384,0.11350489 6.6416992,0.11836677 6.6035156,0.125 A 8,8 0 0 0 5.8925781,0.28320312 8,8 0 0 0 5.84375,0.296875 8,8 0 0 0 5.1035156,0.54296875 c -5.681e-4,2.2049e-4 -0.00138,-2.2062e-4 -0.00195,0 A 8,8 0 0 0 3.6796875,1.265625 8,8 0 0 0 3.6777344,1.2675781 8,8 0 0 0 3.0273438,1.7324219 8,8 0 0 0 2.4257812,2.2617188 8,8 0 0 0 0,7.9921875 c 0,0.00131 -6.3346951e-7,0.00259 0,0.00391 A 8,8 0 0 0 0,8 C 2.2542733e-4,8.2338094 0.01528688,8.4646001 0.03515625,8.6933594 A 8,8 0 0 0 0.0859375,9.1054688 C 0.10268723,9.2256774 0.11860271,9.346394 0.140625,9.4648438 a 8,8 0 0 0 0.09375,0.4199218 c 0.0305106,0.1257964 0.0593371,0.2515934 0.0957031,0.3750004 a 8,8 0 0 0 0.12695313,0.378906 c 0.041494,0.118481 0.0820834,0.237645 0.12890625,0.353516 a 8,8 0 0 0 0.18164062,0.40625 c 0.0502496,0.106767 0.0995435,0.214231 0.15429688,0.318359 a 8,8 0 0 0 0.19335942,0.337891 c 0.068076,0.115442 0.1334397,0.232115 0.2070312,0.34375 a 8,8 0 0 0 0.2167969,0.304687 c 0.081764,0.112297 0.162663,0.226214 0.25,0.333984 a 8,8 0 0 0 0.2675781,0.304688 c 0.079913,0.08903 0.1564731,0.18027 0.2402344,0.265625 A 8,8 0 0 0 2.6523438,13.9375 c 0.074424,0.06723 0.1457446,0.1387 0.2226562,0.203125 a 8,8 0 0 0 0.546875,0.417969 8,8 0 0 0 0.064453,0.04687 8,8 0 0 0 3.7148438,1.355469 A 8,8 0 0 0 7.9863281,16 c 0.3152422,-3.87e-4 0.6242823,-0.02623 0.9296875,-0.0625 A 8,8 0 0 0 9.1152344,15.91211 C 10.117884,15.76717 11.062333,15.440102 11.90625,14.960939 12.286397,14.74734 12.635102,14.50236 12.955078,14.257813 L 11.341797,12.423829 9.484375,14.13672 6.3476562,10.63672 7.2167969,9.8730469 5.0234375,7.4121094 5.890625,6.6484375 3.6679688,4.1875 7.140625,1.0546875 8.2519531,2.2617188 10.138672,0.58007812 11.234375,1.7265625 11.964844,1.0703125 C 11.798254,0.97858919 11.630032,0.88711703 11.462891,0.81054688 10.663591,0.42093611 9.7973104,0.15876126 8.8867188,0.05273437 8.5876656,0.01791342 8.283916,5.2736827e-4 7.9765625,0 Z m 4.7343755,1.8027344 -0.94336,0.8710937 0.853516,0.9472657 0.943359,-0.8554688 z M 10.046875,2.046875 8.6308594,3.3320312 9.9101562,4.7675781 11.326172,3.46875 Z M 7.0488281,2.5371094 5.1464844,4.2480469 6.8496094,6.1582031 8.7539062,4.4472656 Z m 6.8808599,2.109375 -0.94336,0.8554687 0.851563,0.9472657 L 14.78125,5.59375 Z M 11.357422,4.921875 9.9414062,6.2050781 11.220703,7.6269531 12.634766,6.3417969 Z M 8.4023438,5.7929688 6.5,7.5039062 8.2050781,9.4140625 10.109375,7.703125 Z m 6.7304682,1.6796874 -0.943359,0.8554688 0.851563,0.9492188 0.9375,-0.8378907 a 8,8 0 0 0 0.002,-0.041016 z M 12.574219,7.9316406 11.158203,9.2148438 12.4375,10.652344 13.853516,9.3671875 Z M 9.7421875,9.078125 7.8554688,10.804688 9.5605469,12.699219 11.462891,10.988281 Z m 4.0820315,1.742187 -1.416016,1.283204 1.277344,1.435546 0.466797,-0.427734 a 8,8 0 0 0 0.753906,-1.08789 z"
     id="Combined-Shape" /><path
     id="path836"
     style="font-style:normal;font-variant:normal;font-weight:bold;font-stretch:normal;font-size:5.33333349px;line-height:100%;font-family:sans-serif;-inkscape-font-specification:'sans-serif Bold';letter-spacing:0px;word-spacing:0px;fill:#036cb5;fill-opacity:1;stroke:none;stroke-width:1.40587664px;stroke-linecap:butt;stroke-linejoin:miter;stroke-opacity:1"
     d="m 18.328174,4.3574221 h 0.960938 l 0.671875,5.5846113 0.666666,-5.5846113 h 0.966146 l 0.666667,5.5846113 0.671875,-5.5846113 h 0.953125 l -0.916667,7.6846309 h -1.15625 L 21.10682,6.2000865 20.408903,12.042053 h -1.15625 z" /><path
     id="path838"
     style="font-style:normal;font-variant:normal;font-weight:bold;font-stretch:normal;font-size:5.33333349px;line-height:100%;font-family:sans-serif;-inkscape-font-specification:'sans-serif Bold';letter-spacing:0px;word-spacing:0px;fill:#036cb5;fill-opacity:1;stroke:none;stroke-width:1.40587664px;stroke-linecap:butt;stroke-linejoin:miter;stroke-opacity:1"
     d="m 24.544321,4.3574221 h 1.276041 l 0.885417,4.1125386 0.890625,-4.1125386 h 1.273437 V 12.042053 H 27.921925 V 6.4214122 L 27.026091,10.564833 H 26.390675 L 25.494841,6.4214122 v 5.6206408 h -0.95052 z" /><path
     id="path840"
     style="font-style:normal;font-variant:normal;font-weight:bold;font-stretch:normal;font-size:5.33333349px;line-height:100%;font-family:sans-serif;-inkscape-font-specification:'sans-serif Bold';letter-spacing:0px;word-spacing:0px;fill:#036cb5;fill-opacity:1;stroke:none;stroke-width:1.40587664px;stroke-linecap:butt;stroke-linejoin:miter;stroke-opacity:1"
     d="m 29.666716,4.3574221 h 3.26823 l 0.0078,0.9609948 -2.382633,5.8343091 2.438887,-0.01434 -0.0042,0.903664 H 29.60682 v -0.894588 l 2.363324,-5.8038155 -2.307334,0.02397 z" /></svg>